 <svg version="1.0" xmlns="http://www.w3.org/2000/svg" width="700.000000pt" height="700.000000pt" viewBox="0 0 700.000000 700.000000" preserveAspectRatio="xMidYMid meet">
<metadata>
Created by potrace 1.12, written by Peter Selinger 2001-2015
</metadata>
<g transform="translate(0.000000,700.000000) scale(0.100000,-0.100000)" fill="#000000" stroke="none">
<path d="M0 6980 c0 -20 7 -20 3500 -20 3493 0 3500 0 3500 20 0 20 -7 20
-3500 20 -3493 0 -3500 0 -3500 -20z"></path>
<path d="M3603 6114 c-12 -29 -7 -1154 5 -1166 29 -29 32 35 30 596 -2 428 -6
568 -15 577 -10 10 -14 8 -20 -7z"></path>
<path d="M3715 4740 c-148 -24 -317 -99 -412 -183 -34 -31 -53 -16 -53 42 0
87 16 81 -239 81 -163 0 -230 -3 -239 -12 -9 -9 -12 -267 -12 -1100 l0 -1088
23 -9 c12 -4 118 -7 236 -6 167 2 215 6 222 16 5 8 9 309 9 670 l0 657 23 58
c36 93 62 137 118 198 67 73 118 107 202 134 75 24 186 29 252 11 73 -20 159
-70 213 -122 101 -98 148 -191 162 -320 6 -45 10 -350 10 -678 0 -539 2 -598
16 -610 26 -21 441 -20 454 1 7 9 9 276 8 720 -3 652 -4 710 -22 775 -40 152
-103 312 -131 335 -8 7 -15 17 -15 22 0 35 -138 190 -231 259 -53 40 -196 105
-281 128 -86 23 -238 34 -313 21z"></path>
<path d="M1159 3366 c-16 -17 -10 -35 14 -41 12 -3 301 -4 642 -3 612 3 620 3
620 23 0 20 -8 20 -633 25 -394 3 -637 1 -643 -4z"></path>
<path d="M4986 3353 c-4 -9 -1 -20 6 -25 18 -11 1069 -10 1087 1 12 8 12 12 2
25 -12 14 -74 16 -551 16 -493 0 -538 -1 -544 -17z"></path>
<path d="M3606 2212 c-11 -19 -8 -1364 4 -1376 5 -5 13 -6 17 -2 5 4 9 310 11
679 2 561 1 675 -11 691 -10 13 -16 15 -21 8z"></path>
<path d="M0 65 c0 -13 396 -15 3500 -15 3104 0 3500 2 3500 15 0 13 -396 15
-3500 15 -3104 0 -3500 -2 -3500 -15z"></path>
</g>
</svg>